<svg width="22" height="28" viewBox="0 0 22 28" fill="none" xmlns="http://www.w3.org/2000/svg">
<path d="M17.3431 2.46289C17.6712 1.62435 17.4889 0.913411 16.7962 0.330078C16.0306 -0.14388 15.3014 -0.107422 14.6087 0.439453L0.608696 12.6895C0.0253623 13.2363 -0.1387 13.8743 0.116508 14.6035C0.444633 15.3327 0.991508 15.7155 1.75713 15.752H7.88213L3.6712 25.541C3.34307 26.3796 3.52536 27.0905 4.21807 27.6738C4.9837 28.1478 5.71286 28.1113 6.40557 27.5645L20.4056 15.3145C20.9889 14.7676 21.153 14.1296 20.8978 13.4004C20.6061 12.6712 20.0592 12.2884 19.2571 12.252H13.1868L17.3431 2.46289Z" fill="#00E5FF"/>
</svg>
